<svg xmlns="http://www.w3.org/2000/svg" xmlns:xlink="http://www.w3.org/1999/xlink" width="500" zoomAndPan="magnify" viewBox="0 0 375 374.999991" height="500" preserveAspectRatio="xMidYMid meet" version="1.0"><defs><clipPath id="4e9d0f4835"><path d="M 10.609375 10.609375 L 364.609375 10.609375 L 364.609375 364.609375 L 10.609375 364.609375 Z M 10.609375 10.609375 " clip-rule="nonzero"/></clipPath></defs><g clip-path="url(#4e9d0f4835)"><path fill="#51a735" d="M 68.238281 10.609375 L 306.90625 10.609375 C 322.765625 10.609375 337.207031 17.121094 347.617188 27.527344 C 358.09375 38.007812 364.609375 52.378906 364.609375 68.238281 L 364.609375 306.90625 C 364.609375 322.765625 358.09375 337.207031 347.6875 347.617188 C 337.207031 358.09375 322.835938 364.609375 306.976562 364.609375 L 164.527344 364.609375 L 164.527344 199.359375 C 164.527344 143.285156 210.265625 97.550781 266.335938 97.550781 L 306.835938 97.550781 L 306.835938 138.046875 C 306.835938 194.121094 261.097656 239.859375 205.023438 239.859375 L 195.183594 239.859375 L 195.183594 344.003906 L 306.976562 344.003906 C 317.171875 344.003906 326.445312 339.828125 333.171875 333.101562 C 339.898438 326.375 344.074219 317.101562 344.074219 306.90625 L 344.074219 68.238281 C 344.074219 58.042969 339.898438 48.769531 333.171875 42.042969 C 326.445312 35.316406 317.171875 31.140625 306.976562 31.140625 L 68.238281 31.140625 C 58.042969 31.140625 48.769531 35.316406 42.042969 42.042969 C 35.386719 48.839844 31.210938 58.113281 31.210938 68.238281 L 31.210938 306.90625 C 31.210938 317.101562 35.386719 326.375 42.113281 333.101562 C 48.839844 339.828125 58.113281 344.003906 68.308594 344.003906 L 149.234375 344.003906 L 149.234375 364.609375 L 68.238281 364.609375 C 52.378906 364.609375 37.9375 358.09375 27.527344 347.6875 C 17.121094 337.207031 10.609375 322.835938 10.609375 306.976562 L 10.609375 68.238281 C 10.609375 52.378906 17.121094 38.007812 27.527344 27.527344 C 37.9375 17.050781 52.378906 10.609375 68.238281 10.609375 Z M 91.390625 159.074219 L 68.378906 159.074219 L 68.378906 182.085938 C 68.378906 213.945312 94.363281 239.859375 126.222656 239.859375 L 149.234375 239.859375 L 149.234375 216.847656 C 149.164062 184.988281 123.25 159.074219 91.390625 159.074219 Z M 91.390625 159.074219 " fill-opacity="1" fill-rule="evenodd"/></g></svg>